<svg width="24" height="24" viewBox="0 0 24 24" fill="none" xmlns="http://www.w3.org/2000/svg">
<g clip-path="url(#clip0)">
<path d="M23.881 8.948C23.108 4.863 19.022 4.355 19.022 4.355H0.723C0.119 4.355 0.0439995 5.153 0.0439995 5.153C0.0439995 5.153 -0.0380005 12.477 0.0219995 16.975C0.186 19.399 2.608 19.647 2.608 19.647C2.608 19.647 10.875 19.624 14.574 19.598C17.012 19.172 17.257 17.032 17.232 15.864C21.584 16.104 24.654 13.033 23.881 8.948V8.948ZM12.819 12.459C11.573 13.912 8.808 16.435 8.808 16.435C8.808 16.435 8.687 16.554 8.498 16.458C8.422 16.401 8.39 16.368 8.39 16.368C7.947 15.927 5.022 13.319 4.356 12.414C3.647 11.449 3.315 9.714 4.265 8.704C5.216 7.694 7.27 7.618 8.628 9.111C8.628 9.111 10.193 7.329 12.096 8.148C14 8.968 13.928 11.159 12.819 12.459V12.459ZM18.992 12.937C18.064 13.053 17.31 12.965 17.31 12.965V7.284H19.08C19.08 7.284 21.051 7.835 21.051 9.922C21.051 11.835 20.066 12.589 18.992 12.937V12.937Z" fill="#63DACC"/>
</g>
<defs>
<clipPath id="clip0">
<rect width="24" height="24" fill="white"/>
</clipPath>
</defs>
</svg>
